<svg id="Layer_1" data-name="Layer 1" xmlns="http://www.w3.org/2000/svg" viewBox="0 0 512 512"><defs><style>.cls-1{fill:#322c2c;}.cls-2{fill:#fffdfb;}.cls-3{fill:#e5521d;}</style></defs><title>BR_LOGO_favicon</title><rect class="cls-1" width="512" height="512"/><path class="cls-2" d="M233.94,227.08v-64.3c0-23.72,7.29-35.58,22.06-35.58,15.19,0,22.68,11.86,22.68,35.58v64.3H369V179.22c0-41.2-9.15-74.28-27.67-99.25s-46.19-37.45-83.23-37.45c-37.45,0-66.17,12.69-85.73,37.66Q142.71,117.93,142.81,179v47.86h91.13Z"/><path class="cls-3" d="M278.89,285.34v63.88c0,23.72-7.7,35.58-22.68,35.58-14.78,0-22.06-11.86-22.06-35.58V285.34H143V333c0,40.78,9.78,73.86,29.54,98.83,19.77,25.18,48.28,37.66,85.73,37.66,37,0,64.71-12.48,83.23-37.45s27.67-58,27.67-99.25V285.13h-90.3Z"/></svg>