<svg width="62" height="16" viewBox="0 0 62 16" fill="none" xmlns="http://www.w3.org/2000/svg">
<path d="M61.3536 8.35355C61.5488 8.15829 61.5488 7.84171 61.3536 7.64645L58.1716 4.46447C57.9763 4.2692 57.6597 4.2692 57.4645 4.46447C57.2692 4.65973 57.2692 4.97631 57.4645 5.17157L60.2929 8L57.4645 10.8284C57.2692 11.0237 57.2692 11.3403 57.4645 11.5355C57.6597 11.7308 57.9763 11.7308 58.1716 11.5355L61.3536 8.35355ZM0 8.5H1.90625V7.5H0V8.5ZM5.71875 8.5H9.53125V7.5H5.71875V8.5ZM13.3438 8.5H17.1562V7.5H13.3438V8.5ZM20.9688 8.5H24.7812V7.5H20.9688V8.5ZM28.5938 8.5H32.4062V7.5H28.5938V8.5ZM36.2188 8.5H40.0312V7.5H36.2188V8.5ZM43.8438 8.5H47.6562V7.5H43.8438V8.5ZM51.4688 8.5H55.2812V7.5H51.4688V8.5ZM59.0938 8.5H61V7.5H59.0938V8.5ZM61.7071 8.70711C62.0976 8.31658 62.0976 7.68342 61.7071 7.29289L55.3431 0.928932C54.9526 0.538408 54.3195 0.538408 53.9289 0.928932C53.5384 1.31946 53.5384 1.95262 53.9289 2.34315L59.5858 8L53.9289 13.6569C53.5384 14.0474 53.5384 14.6805 53.9289 15.0711C54.3195 15.4616 54.9526 15.4616 55.3431 15.0711L61.7071 8.70711ZM0 9H1.90625V7H0V9ZM5.71875 9H9.53125V7H5.71875V9ZM13.3438 9H17.1562V7H13.3438V9ZM20.9688 9H24.7812V7H20.9688V9ZM28.5938 9H32.4062V7H28.5938V9ZM36.2188 9H40.0312V7H36.2188V9ZM43.8438 9H47.6562V7H43.8438V9ZM51.4688 9H55.2812V7H51.4688V9ZM59.0938 9H61V7H59.0938V9Z" fill="black"/>
</svg>
