<svg id="Layer_1" data-name="Layer 1" xmlns="http://www.w3.org/2000/svg" viewBox="0 0 70 70">
	<title>
		cos-zap-legend
	</title>
	<g id="zap-legend">
		<path d="M34.9,7.5,7.4,35,34.9,62.5,62.5,35Z" style="fill:#edc80f" />
		<path d="M17.8,30.8l-12-12L3,21.5l12,12Z" style="fill:#e93d07" />
		<path d="M25.7,22.9l-12-12-2.8,2.8,12,12Z" style="fill:#e93d07" />
		<path d="M33.5,15,21.5,3,18.7,5.8l12,12Z" style="fill:#e93d07" />
		<path d="M51.3,64.3l-12-12L36.5,55l12,12Z" style="fill:#e93d07" />
		<path d="M59.2,56.4l-12-12-2.8,2.8,12,12Z" style="fill:#e93d07" />
		<path d="M67,48.5l-12-12-2.8,2.8,12,12Z" style="fill:#e93d07" />
		<path d="M39.2,17.8l12-12L48.4,3l-12,12Z" style="fill:#e93d07" />
		<path d="M47.1,25.7l12-12-2.8-2.8-12,12Z" style="fill:#e93d07" />
		<path d="M54.9,33.5l12-12-2.8-2.8-12,12Z" style="fill:#e93d07" />
		<path d="M5.7,51.3l12-12-2.8-2.8-12,12Z" style="fill:#e93d07" />
		<path d="M13.6,59.2l12-12-2.8-2.8-12,12Z" style="fill:#e93d07" />
		<path d="M21.4,67l12-12-2.8-2.8-12,12Z" style="fill:#e93d07" />
	</g>
	<g id="cog-legend">
		<rect width="70" height="70" style="fill:#fffdfb" />
		<path d="M35,52.59A17.64,17.64,0,1,0,17.31,34.95,17.64,17.64,0,0,0,35,52.59Z" style="fill:#a7d6cc" />
		<path d="M26.47,16.52,20.56,6.27,17.31,8.14l5.91,10.25A27.51,27.51,0,0,1,26.47,16.52Z" style="fill:#0a4874" />
		<path d="M18.39,23.22,8.14,17.31,6.27,20.56l10.25,5.91A27.52,27.52,0,0,1,18.39,23.22Z" style="fill:#0a4874" />
		<path d="M14.65,35a11.93,11.93,0,0,1,.1-1.87H2.92v3.75H14.74A11.32,11.32,0,0,1,14.65,35Z" style="fill:#0a4874" />
		<path d="M35,14.65a11.93,11.93,0,0,1,1.87.1V2.92H33.08V14.74A12.57,12.57,0,0,1,35,14.65Z" style="fill:#0a4874" />
		<path d="M46.68,18.39,52.59,8.14,49.34,6.27,43.43,16.52A17.5,17.5,0,0,1,46.68,18.39Z" style="fill:#0a4874" />
		<path d="M53.48,26.47l10.25-5.91-1.87-3.25L51.61,23.22C52.3,24.3,52.89,25.39,53.48,26.47Z" style="fill:#0a4874" />
		<path d="M51.61,46.68l10.25,5.91,1.87-3.25L53.48,43.43A25.56,25.56,0,0,1,51.61,46.68Z" style="fill:#0a4874" />
		<path d="M16.52,43.52,6.27,49.44l1.87,3.25,10.25-5.91A27.52,27.52,0,0,1,16.52,43.52Z" style="fill:#0a4874" />
		<path d="M43.53,53.48l5.91,10.25,3.25-1.87L46.78,51.61C45.69,52.3,44.61,52.89,43.53,53.48Z" style="fill:#0a4874" />
		<path d="M55.26,33.18a11.32,11.32,0,0,1,.1,1.87,11.32,11.32,0,0,1-.1,1.87H67.08V33.18Z" style="fill:#0a4874" />
		<path d="M35,55.35a11.93,11.93,0,0,1-1.87-.1V67.08h3.75V55.25A11.32,11.32,0,0,1,35,55.35Z" style="fill:#0a4874" />
		<path d="M23.22,51.61,17.31,61.86l3.25,1.87,5.91-10.25C25.39,52.89,24.31,52.3,23.22,51.61Z" style="fill:#0a4874" />
	</g>
</svg>
