<?xml version="1.0" encoding="utf-8"?>
<!-- Generator: Adobe Illustrator 22.0.1, SVG Export Plug-In . SVG Version: 6.00 Build 0)  -->
<svg version="1.1" id="Layer_1" xmlns="http://www.w3.org/2000/svg" xmlns:xlink="http://www.w3.org/1999/xlink" x="0px" y="0px"
	 viewBox="0 0 1080 170.9" style="enable-background:new 0 0 1080 170.9;" xml:space="preserve">
<style type="text/css">
	.st1{fill:#FFFDFB;}
	.st6{fill:#E3532A;}
</style>
<g>
	<path class="st1" d="M48.6,118.8c1.4,1.5,3.3,2.3,5.7,2.3c2.4,0,4.3-0.8,5.7-2.3c1.4-1.5,2.1-3.7,2.1-6.5V31.4h18.6v84.9
		c0,7.7-2.6,14.2-7.8,19.4c-5.2,5.2-12.2,7.8-20.9,7.8h-1.1c-9.5,0-16.8-3-22-8.9c-5.2-6-7.8-13.4-7.8-22.2V31.4h25.5v80.9
		C46.5,115.1,47.2,117.3,48.6,118.8z"/>
	<path class="st1" d="M150.6,141.6h-16.7l-23-55.1v55.1H90.8V31.4h20.7l19,42.2V31.4h20.1L150.6,141.6L150.6,141.6z"/>
	<path class="st1" d="M210.5,141.6h-49.6l0.2-110.2h24.5v87h24.9V141.6z"/>
	<path class="st1" d="M321.2,59.3c0-1.9-0.7-3.6-2-5c-1.3-1.5-3-2.2-4.8-2.2c-1.9,0-3.5,0.7-4.9,2.2c-1.3,1.5-2,3.1-2,5v54.9
		c0,1.9,0.7,3.5,2,4.8s3,2,4.9,2s3.5-0.7,4.8-2s2-3,2-4.8v-16h18.6v18c0,7.7-2.6,14.2-7.7,19.4c-5.1,5.2-11.8,7.8-20,7.8H311
		c-9,0-16-3-21.2-8.9c-5.1-6-7.7-13.4-7.7-22.2V56.7c0-4.9,1.3-9.5,3.8-13.7c2.5-4.2,6-7.5,10.4-10s9.3-3.7,14.9-3.7h1
		c9.5,0,16.5,3,21.1,9.1s6.8,13.4,6.8,22v14.6h-18.8L321.2,59.3L321.2,59.3z"/>
	<path class="st1" d="M385.5,141.6l-8-32.9l-0.8-6.7l-2.9,8v31.3h-25.6v-110h25.8v16.3l-0.8,16l3.4-10.1l9.1-22.2h23.4l-14.8,32.3
		l16.1,77.9L385.5,141.6L385.5,141.6z"/>
	<path class="st1" d="M483.5,133.7c-4.7,5.3-11.1,7.9-19.2,7.9h-31.9V31.4h31.7c8.1,0,14.5,2.6,19.3,7.9c4.8,5.3,7.1,11.8,7.1,19.5
		c0,7.6-0.8,13-2.5,16c-1.6,3.1-4.5,5.5-8.5,7.1v0.4c7.6,3.3,11.4,8.8,11.4,16.5l-0.2,15.4C490.6,122,488.2,128.4,483.5,133.7z
		 M465,72c1.5-1.8,2.2-4,2.2-6.8v-3.4c0-6.7-2.8-10.1-8.4-10.1h-2.5v23.2h2.5C461.5,74.8,463.5,73.8,465,72z M465.5,96.2
		c-1.1-1.6-2.4-2.5-4.1-2.5h-5.1v27.5h5.1c1.8,0,3.2-0.8,4.2-2.3c1-1.5,1.5-3.5,1.5-5.9v-11.6C467.2,99.6,466.6,97.8,465.5,96.2z"/>
	<path class="st1" d="M527.6,141.6l-1.5-12.2h-12.7l-1.3,12.2h-18l16-110.2h23l19.4,110.2H527.6z M519.4,83.4h-0.2l-4.6,32.3h8.9
		L519.4,83.4z"/>
	<path class="st1" d="M557,31.4h25.8v110.2H557V31.4z"/>
	<path class="st1" d="M642.7,141.6h-49.6l0.2-110.2h24.5v87h24.9V141.6z"/>
	<path class="st6" d="M695,31.4c8.1,0,14.5,2.6,19.3,7.9c4.8,5.3,7.1,11.8,7.1,19.5c0,7.6-0.8,13-2.5,16c-1.7,3.1-4.5,5.5-8.5,7.1
		v0.4c3.8,1.7,6.7,3.9,8.6,6.7c2,2.8,2.9,6.1,2.8,9.9c-0.4,15.6-0.5,25.1-0.4,28.5c0.1,4.1,1.1,8.8,2.8,14.2h-23.4
		c-1-1.3-1.8-3.4-2.4-6.5s-0.9-6-0.9-8.9l0.2-26.6c0-1.8-0.5-3.2-1.6-4.3c-1.1-1.1-2.4-1.6-4.1-1.6h-4.6v47.9h-24.3V31.4L695,31.4
		L695,31.4z M695.8,72c1.5-1.8,2.2-4,2.2-6.8v-3.4c0-6.7-2.8-10.1-8.4-10.1h-2.5v23.2h2.5C692.3,74.8,694.4,73.8,695.8,72z"/>
	<path class="st6" d="M756.3,77h13.5v20.3h-13.3v21.8h24.9v22.4h-50.3V31.4h50.3v23.2h-25.1V77z"/>
	<path class="st6" d="M814.7,77h13.5v20.3h-13.3v44.3h-25.5V31.4h50.3v23.2h-25.1V77z"/>
	<path class="st6" d="M943.7,31.4c8.1,0,14.5,2.6,19.3,7.9c4.8,5.3,7.1,11.8,7.1,19.5c0,7.6-0.8,13-2.5,16c-1.7,3.1-4.5,5.5-8.5,7.1
		v0.4c3.8,1.7,6.7,3.9,8.6,6.7c2,2.8,2.9,6.1,2.8,9.9c-0.4,15.6-0.5,25.1-0.4,28.5c0.1,4.1,1.1,8.8,2.8,14.2h-23.4
		c-1-1.3-1.8-3.4-2.4-6.5s-0.9-6-0.9-8.9l0.2-26.6c0-1.8-0.5-3.2-1.6-4.3c-1.1-1.1-2.4-1.6-4.1-1.6h-4.6v47.9h-24.3V31.4L943.7,31.4
		L943.7,31.4z M944.5,72c1.5-1.8,2.2-4,2.2-6.8v-3.4c0-6.7-2.8-10.1-8.4-10.1h-2.5v23.2h2.5C941,74.8,943.1,73.8,944.5,72z"/>
	<path class="st6" d="M1058.2,141.6h-24.5V88.4l-11.8,53.2h-10.3l-11.8-53.2v53.2h-20.1V31.4h30.4l10.1,40.1l8.5-40.1h29.4
		L1058.2,141.6L1058.2,141.6z"/>
	<g>
		<path class="st6" d="M866.9,78.5V61.6c0-6.3,2-9.5,5.9-9.5c4,0,6.1,3.2,6.1,9.5v16.9H903V66c0-11-2.5-19.8-7.4-26.5
			c-4.9-6.6-12.3-10-22.2-10c-10,0-17.7,3.4-22.9,10.1c-5.3,6.7-7.9,15.5-7.9,26.4v12.5H866.9z"/>
		<path class="st6" d="M878.9,98.5v12.9c0,6.3-2,9.5-6.1,9.5c-3.9,0-5.9-3.2-5.9-9.5V98.5h-24.3v8.5c0,10.9,2.6,19.7,7.9,26.4
			c5.3,6.7,12.9,10.1,22.9,10.1c9.9,0,17.3-3.3,22.2-10c4.9-6.6,7.4-15.5,7.4-26.5v-8.5H878.9z"/>
	</g>
	<g>
		<path class="st1" d="M238,78.5V61.6c0-6.3,2-9.5,5.9-9.5c4.1,0,6.1,3.2,6.1,9.5v16.9h24.1V66c0-11-2.5-19.8-7.4-26.5
			c-4.9-6.6-12.4-10-22.2-10c-10,0-17.6,3.4-22.9,10.1c-5.3,6.7-7.9,15.5-7.9,26.4v12.5H238z"/>
		<path class="st1" d="M250,98.5v12.9c0,6.3-2,9.5-6.1,9.5c-3.9,0-5.9-3.2-5.9-9.5V98.5h-24.3v8.5c0,10.9,2.6,19.7,7.9,26.4
			c5.3,6.7,12.9,10.1,22.9,10.1c9.9,0,17.3-3.3,22.2-10c4.9-6.6,7.4-15.5,7.4-26.5v-8.5H250z"/>
	</g>
</g>
</svg>
