<?xml version="1.0" encoding="utf-8"?>
<!-- Generator: Adobe Illustrator 22.0.1, SVG Export Plug-In . SVG Version: 6.00 Build 0)  -->
<svg version="1.1" id="Layer_1" xmlns="http://www.w3.org/2000/svg" xmlns:xlink="http://www.w3.org/1999/xlink" x="0px" y="0px"
	 viewBox="0 0 761.3 404.7" style="enable-background:new 0 0 761.3 404.7;" xml:space="preserve">
<style type="text/css">
	.st4{fill:#E5521D;}
	.st5{fill:#322C2C;}
</style>
<g>
	<path class="st5" d="M78.1,186.4c2.5,2.7,5.9,4.1,10.3,4.1s7.8-1.4,10.3-4.1c2.5-2.7,3.8-6.6,3.8-11.6V29.1h33.5V182
		c0,13.9-4.7,25.5-14,34.9c-9.3,9.3-21.9,14-37.6,14h-2c-17.1,0-30.3-5.3-39.7-16.1c-9.3-10.7-14-24-14-40V29.1h45.8v145.7
		C74.4,179.8,75.6,183.7,78.1,186.4z"/>
	<path class="st5" d="M261.8,227.5h-30.1l-41.4-99.2v99.2h-36.2V29.1h37.3l34.2,75.9V29.1h36.2V227.5z"/>
	<path class="st5" d="M369.5,227.5h-89.3l0.3-198.4h44.1v156.6h44.8V227.5z"/>
	<path class="st5" d="M568.9,79.4c0-3.4-1.2-6.4-3.6-9.1c-2.4-2.6-5.3-3.9-8.7-3.9c-3.4,0-6.3,1.3-8.7,3.9s-3.6,5.6-3.6,9.1v98.8
		c0,3.4,1.2,6.3,3.6,8.7s5.3,3.6,8.7,3.6c3.4,0,6.3-1.2,8.7-3.6c2.4-2.4,3.6-5.3,3.6-8.7v-28.7h33.5V182c0,13.9-4.6,25.5-13.9,34.9
		c-9.2,9.3-21.3,14-36.1,14h-2c-16.2,0-28.9-5.3-38.1-16.1c-9.2-10.7-13.9-24-13.9-40V74.6c0-8.9,2.3-17.1,6.8-24.6
		s10.8-13.5,18.6-18c7.9-4.4,16.8-6.7,26.8-6.7h1.7c17.1,0,29.8,5.5,38,16.4c8.2,11,12.3,24.2,12.3,39.7v26.3h-33.9L568.9,79.4
		L568.9,79.4z"/>
	<path class="st5" d="M684.5,227.5l-14.4-59.2l-1.4-12l-5.1,14.4v56.4h-46.2v-198H664v29.4l-1.4,28.7l6.2-18.1l16.4-40h42.1
		l-26.7,58.1l29.1,140.2H684.5z"/>
</g>
<g>
	<g>
		<path class="st4" d="M85.9,373.7c-5.2,5.9-12.4,8.8-21.5,8.8H28.6V259h35.6c9.1,0,16.3,3,21.6,8.8c5.3,5.9,8,13.2,8,21.8
			c0,8.5-0.9,14.5-2.8,18c-1.8,3.5-5,6.1-9.6,8v0.4c8.5,3.7,12.8,9.9,12.8,18.5L94,351.9C93.8,360.5,91.1,367.8,85.9,373.7z
			 M65.1,304.6c1.6-2,2.5-4.5,2.5-7.7v-3.8c0-7.5-3.1-11.3-9.4-11.3h-2.8v26h2.8C61.2,307.7,63.5,306.6,65.1,304.6z M65.7,331.6
			c-1.2-1.8-2.7-2.8-4.6-2.8h-5.8v30.9h5.8c2,0,3.5-0.8,4.7-2.6c1.1-1.7,1.7-3.9,1.7-6.6v-13C67.6,335.5,66.9,333.5,65.7,331.6z"/>
		<path class="st4" d="M135.3,382.6l-1.7-13.6h-14.3l-1.5,13.6H97.6L115.5,259h25.8L163,382.6H135.3z M126.1,317.4h-0.2l-5.1,36.2
			h10L126.1,317.4z"/>
		<path class="st4" d="M168.3,259h29v123.5h-29V259z"/>
		<path class="st4" d="M264.4,382.6h-55.6L209,259h27.5v97.5h27.9V382.6z"/>
		<path class="st4" d="M322.9,259c9.1,0,16.3,3,21.6,8.8s8,13.2,8,21.8c0,8.5-0.9,14.5-2.8,18c-1.8,3.5-5,6.1-9.6,8v0.4
			c4.3,1.8,7.5,4.3,9.7,7.5c2.2,3.1,3.2,6.8,3.1,11.1c-0.4,17.5-0.6,28.1-0.4,32c0.1,4.5,1.2,9.9,3.2,16h-26.2
			c-1.1-1.4-2-3.8-2.7-7.2c-0.6-3.4-1-6.7-1-10l0.2-29.8c0-2-0.6-3.6-1.8-4.8c-1.2-1.2-2.7-1.8-4.6-1.8h-5.1v53.7h-27.3V259H322.9z
			 M323.9,304.6c1.6-2,2.5-4.5,2.5-7.7v-3.8c0-7.5-3.1-11.3-9.4-11.3h-2.8v26h2.8C320,307.7,322.3,306.6,323.9,304.6z"/>
		<path class="st4" d="M391.7,310.1h15.1v22.8h-14.9v24.5h27.9v25.1h-56.5V259h56.5v26h-28.1L391.7,310.1L391.7,310.1z"/>
		<path class="st4" d="M457.1,310.1h15.1v22.8h-14.9v49.6h-28.5V259h56.5v26h-28.1V310.1z"/>
		<path class="st4" d="M601.7,259c9.1,0,16.3,3,21.6,8.8c5.3,5.9,8,13.2,8,21.8c0,8.5-0.9,14.5-2.8,18c-1.9,3.5-5,6.1-9.6,8v0.4
			c4.3,1.8,7.5,4.3,9.7,7.5c2.2,3.1,3.2,6.8,3.1,11.1c-0.4,17.5-0.6,28.1-0.4,32c0.1,4.5,1.2,9.9,3.2,16h-26.2
			c-1.1-1.4-2-3.8-2.7-7.2s-1-6.7-1-10l0.2-29.8c0-2-0.6-3.6-1.8-4.8c-1.2-1.2-2.7-1.8-4.6-1.8h-5.1v53.7h-27.3V259H601.7z
			 M602.7,304.6c1.6-2,2.5-4.5,2.5-7.7v-3.8c0-7.5-3.1-11.3-9.4-11.3H593v26h2.8C598.8,307.7,601.1,306.6,602.7,304.6z"/>
		<path class="st4" d="M730.2,382.6h-27.5v-59.6l-13.2,59.6H678l-13.2-59.6v59.6h-22.6V259h34.1l11.3,44.9l9.6-44.9h33L730.2,382.6
			L730.2,382.6z"/>
	</g>
	<g>
		<path class="st4" d="M515.7,312.4v-19.5c0-7.1,2.2-10.7,6.6-10.7c4.5,0,6.8,3.6,6.8,10.7v19.5h27v-14.6c0-12.4-2.8-22.2-8.3-29.7
			c-5.5-7.5-13.8-11.2-24.9-11.2c-11.2,0-19.8,3.8-25.7,11.3c-5.9,7.5-8.8,17.4-8.8,29.6v14.6H515.7z"/>
		<path class="st4" d="M529.1,332.4v16.3c0,7.1-2.3,10.7-6.8,10.7c-4.4,0-6.6-3.5-6.6-10.7v-16.3h-27.3v11.4
			c0,12.2,2.9,22.1,8.8,29.6c5.9,7.5,14.5,11.3,25.7,11.3c11.1,0,19.4-3.7,24.9-11.2c5.5-7.5,8.3-17.4,8.3-29.7v-11.4H529.1z"/>
	</g>
</g>
<g>
	<path class="st5" d="M419.1,114.4V83.5c0-11.4,3.5-17.1,10.6-17.1c7.3,0,10.9,5.7,10.9,17.1v30.9h43.4v-23
		c0-19.8-4.4-35.7-13.3-47.7c-8.9-12-22.2-18-40-18c-18,0-31.8,6.1-41.2,18.1c-9.5,12.1-14.2,27.9-14.2,47.5v23H419.1z"/>
	<path class="st5" d="M440.7,142.4v30.7c0,11.4-3.7,17.1-10.9,17.1c-7.1,0-10.6-5.7-10.6-17.1v-30.7h-43.8v22.9
		c0,19.6,4.7,35.5,14.2,47.5c9.5,12.1,23.2,18.1,41.2,18.1c17.8,0,31.1-6,40-18c8.9-12,13.3-27.9,13.3-47.7v-22.9H440.7z"/>
</g>
</svg>
