<svg version="1" xmlns="http://www.w3.org/2000/svg" width="682.667" height="682.667" viewBox="0 0 512.000000 512.000000"><path d="M248.8 42.5c-.2.1-3.2.5-6.8.9-3.6.3-7.6.8-9 1.1-1.4.3-3.8.8-5.5 1.1-4.9.9-17.2 5.2-22.8 8-20.2 10.1-36.3 27.5-47.2 50.8-7.7 16.4-12.3 34.5-14 54.6-.4 3.8-.8 50.8-.6 63.7l.1 4.3h91l.1-34.8c0-19.1.3-36.8.5-39.4 1.4-15.1 8.6-24.5 19.2-25.2 11.3-.7 18.6 4.5 22.3 16.1 2 6.4 2.2 8.9 2.4 44.3.2 20.6.3 37.9.4 38.5.1.8 60.7 1.2 87.5.6l2.8-.1-.5-37.3c-.2-20.4-.7-38.1-.9-39.2-.3-1.1-.9-4.3-1.3-7-3.1-22.2-12.2-45.5-24-62-15.8-22-37.4-34.3-66.7-38.1-4.2-.5-26.6-1.3-27-.9zM143.3 321.4c.2 19.8.7 37.2 1 38.6.3 1.4 1.1 5.9 1.7 10 3.9 24.9 15.9 50.9 31.2 67.5 16.3 17.7 38.8 28.6 63.9 31.1 47.2 4.7 81.2-8.5 103.1-40.1 13.4-19.3 21.9-45.8 24.4-76 .3-3.5.6-47.7.5-62.3l-.1-5.2h-90l-.1 3.2c0 1.8 0 17.8-.1 35.6 0 34.1-.8 42.4-4.7 50-6.3 12.4-23.5 14.6-32.5 4.1-6.4-7.5-7-11.8-7.2-52.4-.2-19.8-.3-37-.3-38.2l-.1-2.2-45.6.1-45.6.1.5 36.1z"/></svg>